<svg xmlns:x="http://ns.adobe.com/Extensibility/1.0/" xmlns:i="http://ns.adobe.com/AdobeIllustrator/10.0/" xmlns:graph="http://ns.adobe.com/Graphs/1.0/" xmlns="http://www.w3.org/2000/svg" xmlns:xlink="http://www.w3.org/1999/xlink" version="1.1" x="0px" y="0px" viewBox="0 0 100 100" style="enable-background:new 0 0 100 100;" xml:space="preserve"><switch><foreignObject requiredExtensions="http://ns.adobe.com/AdobeIllustrator/10.0/" x="0" y="0" width="1" height="1"/><g i:extraneous="self"><path d="M97.5,50c0,26.3-21.3,47.6-47.6,47.6C25,97.6,4.6,78.5,2.5,54.1h54.4L42.5,68.6c-1.6,1.6-1.6,4.2,0,5.8    c0.8,0.8,1.8,1.2,2.9,1.2c1.1,0,2.1-0.4,2.9-1.2l21.5-21.5c1.6-1.6,1.6-4.2,0-5.8L48.3,25.6c-1.6-1.6-4.2-1.6-5.8,0    c-1.6,1.6-1.6,4.2,0,5.8l14.5,14.5H2.5C4.6,21.5,25,2.4,49.9,2.4C76.2,2.4,97.5,23.7,97.5,50z"/></g></switch></svg>
